<?xml version="1.0" encoding="utf-8"?>
<!-- Generator: Adobe Illustrator 22.1.0, SVG Export Plug-In . SVG Version: 6.00 Build 0)  -->
<svg version="1.1" id="Laag_1" xmlns="http://www.w3.org/2000/svg" xmlns:xlink="http://www.w3.org/1999/xlink" x="0px" y="0px"
	 viewBox="0 0 33.3 53.4" style="enable-background:new 0 0 33.3 53.4;" xml:space="preserve">
<style type="text/css">
	.st0{fill:#666666;}
</style>
<title>arrow right, play, enter, enter_1</title>
<g>
	<path class="st0" d="M26.1,1.7L2.8,23.3l-1.1,1c-1.3,1.1-1.5,3-0.4,4.3c0.1,0.2,0.3,0.3,0.4,0.4l1.1,1l23.3,21.6
		c1.5,1.4,3.9,1.4,5.4,0c1.4-1.3,1.5-3.4,0.2-4.8c-0.1-0.1-0.1-0.2-0.2-0.2L10,26.7L31.5,6.7C32.9,5.5,33,3.4,31.7,2
		c-0.1-0.1-0.1-0.2-0.2-0.2C30,0.3,27.6,0.3,26.1,1.7z"/>
</g>
</svg>
