<?xml version="1.0" encoding="utf-8"?>
<!-- Generator: Adobe Illustrator 22.1.0, SVG Export Plug-In . SVG Version: 6.00 Build 0)  -->
<svg version="1.1" id="Laag_1" xmlns="http://www.w3.org/2000/svg" xmlns:xlink="http://www.w3.org/1999/xlink" x="0px" y="0px"
	 viewBox="0 0 49.2 55.4" style="enable-background:new 0 0 49.2 55.4;" xml:space="preserve">
<style type="text/css">
	.st0{fill:#FFFFFF;}
	.st1{font-family:'HelveticaNeue-Bold';}
	.st2{font-size:5px;}
	.st3{enable-background:new    ;}
	.st4{fill:none;stroke:#FFFFFF;stroke-miterlimit:10;}
</style>
<g>
	<g>
		<g>
			<path class="st0" d="M17.3,25.5h-1.3v2h1.3c0.5,0,1-0.5,1-1C18.2,26,17.8,25.5,17.3,25.5z"/>
			<path class="st0" d="M22.6,25.5h-1.3v3.6h1.3C24.8,29.1,24.9,25.5,22.6,25.5z"/>
			<path class="st0" d="M33.5,21.1h-22c-0.6,0-1,0.5-1,1v10c0,0.5,0.4,1,1,1h22c0.6,0,1-0.5,1-1v-10C34.5,21.6,34.1,21.1,33.5,21.1z
				 M17.3,28.5h-1.3v1.1c0,0.4-0.2,0.6-0.5,0.6c-0.3,0-0.5-0.2-0.5-0.6V25c0-0.3,0.2-0.6,0.5-0.6h1.8c1,0,2,0.7,2,2
				C19.2,27.8,18.3,28.5,17.3,28.5z M22.7,30.1h-1.9c-0.3,0-0.6-0.1-0.6-0.5v-4.5c0-0.3,0.3-0.5,0.6-0.5h1.8
				C26.3,24.6,26.2,30.1,22.7,30.1z M29.8,25.6h-2.3v1.3h2c0.3,0,0.6,0.3,0.6,0.6c0,0.3-0.3,0.5-0.6,0.5h-2v1.7
				c0,0.3-0.2,0.5-0.5,0.5c-0.4,0-0.6-0.2-0.6-0.5v-4.5c0-0.3,0.2-0.5,0.6-0.5h2.8c0.4,0,0.6,0.2,0.6,0.5
				C30.4,25.3,30.2,25.6,29.8,25.6z"/>
		</g>
		<path class="st0" d="M37.5,13.7l-6.6-6.6c-0.6-0.6-1.6-1-2.4-1h-11c-1.7,0-3,1.3-3,3v10c0,0.6,0.4,1,1,1s1-0.4,1-1v-10
			c0-0.6,0.4-1,1-1h9c1.1,0,2,0.9,2,2v3.8c0,1.2,1,2.2,2.2,2.2h3.8c1.1,0,2,0.9,2,2v17c0,0.6-0.4,1-1,1h-18c-0.6,0-1-0.4-1-1
			c0-0.6-0.4-1-1-1s-1,0.4-1,1c0,1.7,1.3,3,3,3h18c1.7,0,3-1.3,3-3v-19C38.5,15.3,38.1,14.3,37.5,13.7z"/>
	</g>
</g>
<text transform="matrix(1 0 0 1 10.2523 47.3367)" class="st0 st1 st2">Procesboek</text>
<text transform="matrix(1 0 0 1 2.947 67.3927)" class="st1 st2">from the Noun Project</text>
<path class="st4" d="M45.2,53.5H3.9c-1.1,0-2-0.9-2-2V3.9c0-1.1,0.9-2,2-2h41.3c1.1,0,2,0.9,2,2v47.6C47.2,52.6,46.3,53.5,45.2,53.5
	z"/>
</svg>
