<?xml version="1.0" encoding="utf-8"?>
<!-- Generator: Adobe Illustrator 22.1.0, SVG Export Plug-In . SVG Version: 6.00 Build 0)  -->
<svg version="1.1" id="Laag_1" xmlns="http://www.w3.org/2000/svg" xmlns:xlink="http://www.w3.org/1999/xlink" x="0px" y="0px"
	 viewBox="0 0 49.2 55.4" style="enable-background:new 0 0 49.2 55.4;" xml:space="preserve">
<style type="text/css">
	.st0{fill:#FFFFFF;}
	.st1{font-family:'HelveticaNeue-Bold';}
	.st2{font-size:5px;}
	.st3{enable-background:new    ;}
	.st4{fill:none;stroke:#FFFFFF;stroke-miterlimit:10;}
</style>
<text transform="matrix(1 0 0 1 15.9998 47.3365)" class="st0 st1 st2">Website</text>
<text transform="matrix(1 0 0 1 2.947 67.3927)" class="st1 st2">from the Noun Project</text>
<path class="st4" d="M45.2,53.5H3.9c-1.1,0-2-0.9-2-2V3.9c0-1.1,0.9-2,2-2h41.3c1.1,0,2,0.9,2,2v47.6C47.2,52.6,46.3,53.5,45.2,53.5
	z"/>
<g transform="translate(0,-952.36218)">
	<path class="st0" d="M25,958.8c-8.7,0-15.8,7.1-15.8,15.8c0,8.7,7.1,15.8,15.8,15.8s15.8-7.1,15.8-15.8
		C40.8,965.9,33.7,958.8,25,958.8z M23.9,961.2v5H20C20.9,963.6,22.2,961.8,23.9,961.2z M26.1,961.2c1.6,0.6,2.9,2.4,3.8,5h-3.8
		V961.2z M19.9,962c-0.8,1.1-1.5,2.5-2,4.2h-3.5C15.8,964.3,17.7,962.9,19.9,962z M30.1,962c2.2,0.9,4.1,2.3,5.6,4.2h-3.5
		C31.6,964.5,30.9,963.1,30.1,962z M12.9,968.4h4.3c-0.4,1.6-0.6,3.3-0.7,5.2h-5.1C11.5,971.7,12.1,969.9,12.9,968.4z M19.4,968.4
		h4.5v5.2h-5.1C18.8,971.7,19,969.9,19.4,968.4z M26.1,968.4h4.5c0.4,1.6,0.6,3.3,0.7,5.2h-5.1V968.4z M32.7,968.4h4.3
		c0.8,1.6,1.3,3.3,1.5,5.2h-5.1C33.3,971.7,33.1,970,32.7,968.4z M11.4,975.7h5.1c0.1,1.8,0.3,3.6,0.7,5.2h-4.3
		C12.1,979.3,11.5,977.6,11.4,975.7z M18.7,975.7h5.1v5.2h-4.5C19,979.3,18.8,977.5,18.7,975.7z M26.1,975.7h5.1
		c-0.1,1.8-0.3,3.6-0.7,5.2h-4.5V975.7z M33.4,975.7h5.1c-0.1,1.8-0.7,3.6-1.5,5.2h-4.3C33.1,979.3,33.3,977.5,33.4,975.7z
		 M14.3,983.1h3.5c0.5,1.6,1.2,3,2.1,4.2C17.7,986.4,15.7,984.9,14.3,983.1L14.3,983.1z M20,983.1h3.8v5
		C22.2,987.5,20.9,985.6,20,983.1z M26.1,983.1h3.8c-0.9,2.5-2.2,4.4-3.8,5V983.1z M32.1,983.1h3.5c-1.5,1.8-3.4,3.3-5.6,4.2
		C30.9,986.1,31.6,984.7,32.1,983.1z"/>
</g>
</svg>
